<svg
  data-name="Layer 1"
  xmlns="http://www.w3.org/2000/svg"
  xmlns:xlink="http://www.w3.org/1999/xlink"
  viewBox="0 0 862.844 574"
  class="absolute hidden xl:flex"
  style="width: 350px; right: 1rem; top: -6rem;"
>
  <defs>
    <linearGradient
      id="a"
      x1="491.814"
      y1="649.09"
      x2="491.814"
      y2="275.777"
      gradientUnits="userSpaceOnUse"
    >
      <stop offset="0" stop-color="gray" stop-opacity=".25"></stop>
      <stop offset=".535" stop-color="gray" stop-opacity=".12"></stop>
      <stop offset="1" stop-color="gray" stop-opacity=".1"></stop>
    </linearGradient>
    <linearGradient
      id="b"
      x1="743.556"
      y1="708.815"
      x2="743.556"
      y2="647.802"
      xlink:href="#a"
    ></linearGradient>
    <linearGradient
      id="c"
      x1="322.803"
      y1="543.162"
      x2="322.803"
      y2="385.061"
      xlink:href="#a"
    ></linearGradient>
    <linearGradient
      id="d"
      x1="519.121"
      y1="123.678"
      x2="519.121"
      y2="29.316"
      xlink:href="#a"
    ></linearGradient>
    <linearGradient
      id="e"
      x1="534.557"
      y1="145.484"
      x2="534.557"
      y2="51.121"
      xlink:href="#a"
    ></linearGradient>
    <linearGradient
      id="f"
      x1="656.13"
      y1="119.518"
      x2="656.13"
      y2="65.397"
      xlink:href="#a"
    ></linearGradient>
    <linearGradient
      id="g"
      x1="771.514"
      y1="162.365"
      x2="771.514"
      y2="18.041"
      xlink:href="#a"
    ></linearGradient>
    <linearGradient
      id="h"
      x1="674.919"
      y1="262.903"
      x2="674.919"
      y2="202.956"
      xlink:href="#a"
    ></linearGradient>
    <linearGradient
      id="i"
      x1="637.959"
      y1="255.272"
      x2="637.959"
      y2="180.968"
      xlink:href="#a"
    ></linearGradient>
  </defs>
  <path
    d="M105.422 505.622c0 18.88-11.224 25.474-25.07 25.474-.321 0-.642-.004-.96-.013a37.893 37.893 0 01-1.905-.087c-12.497-.883-22.205-7.816-22.205-25.374 0-18.17 23.215-41.097 24.966-42.8h.004l.1-.1s25.07 24.018 25.07 42.9z"
    fill="#3f3d56"
  ></path>
  <path
    d="M79.438 528.207l9.17-12.812-9.193 14.218-.024 1.47a37.893 37.893 0 01-1.904-.087l.988-18.889-.007-.146.017-.028.092-1.784-9.215-14.254 9.243 12.916.023.378.747-14.272-7.889-14.728 7.985 12.22.777-29.586.004-.101v.1l-.13 23.331 7.854-9.25-7.886 11.259-.208 12.779 7.334-12.263-7.365 14.144-.115 7.104 10.646-17.07-10.686 19.55z"
    fill="#f2f2f2"
  ></path>
  <path
    d="M592.513 559.448c-6.698-24.313-43.889-42.232-72.908-46.858v-11.679q.805-.3 1.6-.617a25.804 25.804 0 00-1.393-6.844 70.433 70.433 0 0030.858-24.407A79.358 79.358 0 00535 346.703a15.57 15.57 0 00-6.961-28.683 30.391 30.391 0 00-47.313-35.306 30.382 30.382 0 0144.653 26.83c0 .267-.016.53-.022.794a30.386 30.386 0 10-58.905 11.367 15.194 15.194 0 00-10.057 22.257 79.36 79.36 0 00-19.353 126.219 70.445 70.445 0 0028.622 22.681v19.467c-29.326 4.19-67.946 22.442-74.694 47.355-5.88 21.71-12.158 45.551-15.28 59.55 26.77 18.81 82.944 29.856 118.148 29.856 33.448 0 88.118-9.97 114.101-27.098-2.814-15.381-9.29-40.27-15.426-62.544zM538.886 334.87c0 .277-.012.55-.026.824a15.197 15.197 0 00-12.619-14.113q.442-.748.842-1.521a15.197 15.197 0 0111.803 14.81z"
    transform="translate(-168.578 -163)"
    fill="url(#a)"
  ></path>
  <path
    d="M325.203 480.773c32.495 0 85.608-9.685 110.85-26.326-2.734-14.943-9.025-39.123-14.986-60.762-7.593-27.559-55.511-46.665-84.097-46.665h-27.546c-28.674 0-76.662 19.217-84.16 46.894-5.712 21.09-11.81 44.254-14.845 57.853 26.008 18.275 80.582 29.006 114.784 29.006z"
    fill="#6c63ff"
  ></path>
  <circle cx="324.68" cy="252.595" r="77.092" fill="#f55f44"></circle>
  <path
    d="M303.866 306.181h40.335a6.035 6.035 0 016.035 6.035v41.242a24.78 24.78 0 01-24.78 24.78h-2.845a24.78 24.78 0 01-24.78-24.78v-41.242a6.035 6.035 0 016.035-6.035z"
    fill="#fda57d"
  ></path>
  <path
    d="M326.454 341.097a67.981 67.981 0 0025.336-4.882 25.11 25.11 0 00-25.045-23.483h-2.148a25.122 25.122 0 00-25.014 22.86 67.968 67.968 0 0026.871 5.505z"
    opacity=".05"
  ></path>
  <circle cx="324.817" cy="266.344" r="68.203" fill="#fda57d"></circle>
  <circle cx="301.717" cy="177.143" r="14.762" fill="#f55f44"></circle>
  <circle cx="354.205" cy="177.143" r="14.762" fill="#f55f44"></circle>
  <circle cx="326.32" cy="152.539" r="29.525" fill="#f55f44"></circle>
  <path
    d="M357.485 159.1a14.693 14.693 0 00-8.238 2.512 14.755 14.755 0 0113.196 26.141 14.754 14.754 0 00-4.958-28.653z"
    fill="#f55f44"
  ></path>
  <path
    d="M331.241 118.094a29.403 29.403 0 00-18.777 6.74 29.522 29.522 0 0132.633 48.85 29.521 29.521 0 00-13.856-55.59z"
    fill="#f55f44"
  ></path>
  <path
    d="M275.472 205.027s8.202 54.129 111.538 24.604l-50.848-44.287z"
    fill="#f55f44"
  ></path>
  <rect
    x="45.227"
    y="515.012"
    width="71.055"
    height="30.236"
    rx="14.297"
    fill="#6c63ff"
  ></rect>
  <path
    d="M763.711 658.697v-10.895h-54.475v50.39a10.623 10.623 0 0010.623 10.623h33.23a10.623 10.623 0 0010.622-10.623v-11.167a14.164 14.164 0 100-28.328zm0 22.88v-17.432a8.716 8.716 0 010 17.432z"
    transform="translate(-168.578 -163)"
    fill="url(#b)"
    opacity=".7"
  ></path>
  <path
    d="M593.38 497.403a12.932 12.932 0 1012.933 12.932 12.932 12.932 0 00-12.932-12.932zm0 20.89a7.958 7.958 0 117.959-7.958 7.958 7.958 0 01-7.958 7.958z"
    fill="#6c63ff"
  ></path>
  <path
    d="M593.38 497.403a12.932 12.932 0 1012.933 12.932 12.932 12.932 0 00-12.932-12.932zm0 20.89a7.958 7.958 0 117.959-7.958 7.958 7.958 0 01-7.958 7.958z"
    opacity=".1"
  ></path>
  <path
    d="M543.642 487.455h49.739v45.957a9.75 9.75 0 01-9.75 9.75h-30.239a9.75 9.75 0 01-9.75-9.75v-45.957z"
    fill="#6c63ff"
  ></path>
  <path fill="#e0e0e0" d="M0 543.162h645.606v21.885H0z"></path>
  <rect
    x="185.525"
    y="385.061"
    width="274.557"
    height="158.101"
    rx="14.5"
    fill="url(#c)"
    opacity=".7"
  ></rect>
  <rect
    x="190.499"
    y="387.978"
    width="264.609"
    height="155.184"
    rx="26.835"
    fill="#535461"
  ></rect>
  <circle cx="322.803" cy="465.57" r="8.953" fill="#fff"></circle>
  <path fill="#e0e0e0" d="M27.356 565.047H618.25V574H27.356z"></path>
  <path opacity=".1" d="M27.356 565.047H618.25v2.984H27.356z"></path>
  <path
    d="M584.428 487.455v46.008a9.699 9.699 0 01-9.7 9.7h4.975a9.699 9.699 0 009.699-9.7v-46.008z"
    opacity=".1"
  ></path>
  <path
    d="M553.457 450.373a2.904 2.904 0 00-2.196 1.115c-.653 1.183.53 2.517 1.609 3.33 1.993 1.5 4.094 2.976 5.449 5.071s1.78 5.02.3 7.03c-1.935 2.622-6.549 3.186-6.995 6.413-.287 2.073 1.505 3.84 3.32 4.88 4.48 2.567 10.256 3.252 13.501 7.267 1.342-2.76 4.345-4.356 7.338-5.037s6.103-.63 9.138-1.093a3.16 3.16 0 002.521-1.337c.848-1.722-1.57-3.787-.735-5.515.635-1.316 2.5-1.213 3.863-1.74 2.219-.858 3.134-3.713 2.504-6.007s-2.408-4.086-4.279-5.556c-5.04-3.96-11.1-6.29-17.23-7.965-2.851-.779-6.198-2-9.16-2.119-2.858-.114-6.118.78-8.948 1.263z"
    fill="#eee"
  ></path>
</svg>
